<svg width="13" height="13" viewBox="0 0 13 13" fill="none" xmlns="http://www.w3.org/2000/svg" aria-hidden="true">
  <path d="M6.5 1C3.46 1 1 3.46 1 6.5c0 2.43 1.57 4.49 3.75 5.22.27.05.37-.12.37-.26v-.93c-1.52.33-1.84-.73-1.84-.73-.25-.63-.61-.8-.61-.8-.5-.34.04-.33.04-.33.55.04.84.57.84.57.49.84 1.28.6 1.59.46.05-.36.19-.6.35-.74-1.21-.14-2.49-.6-2.49-2.69 0-.59.21-1.08.56-1.46-.06-.14-.24-.69.05-1.44 0 0 .46-.15 1.5.56A5.2 5.2 0 016.5 4.4c.46 0 .93.06 1.37.18 1.04-.71 1.5-.56 1.5-.56.29.75.11 1.3.05 1.44.35.38.56.87.56 1.46 0 2.1-1.28 2.55-2.5 2.69.2.17.37.5.37.99v1.48c0 .14.1.32.37.26A5.5 5.5 0 0012 6.5C12 3.46 9.54 1 6.5 1z" fill="currentColor" />
</svg>
