<?xml version="1.0" encoding="UTF-8"?>
<svg id="Camada_2" data-name="Camada 2" xmlns="http://www.w3.org/2000/svg" viewBox="0 0 1000 960.38">
  <defs>
    <style>
      .cls-1 {
        fill: #332418;
      }

      .cls-2 {
        fill: #c99060;
      }
    </style>
  </defs>
  <g id="Camada_4" data-name="Camada 4">
    <g>
      <path class="cls-1" d="M659.35,58.44c-49.76,248.81-120.03,600.17-172.34,861.72-6.2,31.01-39.28,48.54-68.43,36.27-116.22-48.93-278.13-117.11-388.01-163.37C12.04,785.26,0,767.12,0,747.01v-83.62c0-20.12,12.06-38.28,30.6-46.08l292.75-123.27c11.09-4.67,22.89,4.97,20.53,16.77l-25.65,128.26c-.98,4.88-4.3,8.95-8.89,10.88l-109.32,46.03c-8.16,3.44-8.16,15,0,18.43,38.74,16.31,95.83,40.35,136.1,57.31,14.58,6.14,31.11-2.63,34.21-18.14,38.35-191.76,101.43-507.16,142.67-713.35,6.2-31.01,39.28-48.55,68.43-36.27l63.12,26.58c10.94,4.61,17.14,16.28,14.81,27.92Z"/>
      <path class="cls-2" d="M1000,213.39v83.6c0,20.12-12.06,38.28-30.6,46.08l-292.75,123.27c-11.09,4.67-22.89-4.97-20.53-16.77l25.65-128.26c.98-4.88,4.3-8.95,8.89-10.88l109.33-46.03c8.16-3.44,8.16-15,0-18.43l-83.85-35.3c-6.57-2.77-10.29-9.78-8.89-16.77l21.67-108.33c1.86-9.3,11.78-14.56,20.53-10.88l219.95,92.61c18.54,7.81,30.6,25.96,30.6,46.08Z"/>
    </g>
  </g>
</svg>